<?xml version="1.0" encoding="UTF-8"?><svg id="Layer_2" xmlns="http://www.w3.org/2000/svg" viewBox="0 0 51.12 60.34"><defs><style>.cls-1{fill:#013364;}</style></defs><g id="Layer_1-2"><path class="cls-1" d="M49.57,7.71C47.63,3.04,43.08,0,38.04,0h0c-3.31,0-6.49,1.3-8.83,3.65L6.58,26.29c-3.89,3.86-6.07,9.12-6.05,14.61v9.1h9.1c5.48.01,10.73-2.17,14.6-6.05l22.65-22.63c3.57-3.57,4.63-8.94,2.7-13.61ZM19.62,39.34c-2.65,2.66-6.25,4.15-10,4.14h-2.58v-2.58c0-3.75,1.48-7.35,4.14-9.99l14.13-14.13c.18.25.39.49.64.7l8.13,6.79c.11.09.24.17.35.25l-14.82,14.82ZM42.26,16.71h0s-.81.8-.81.8c-.1-.1-.18-.22-.29-.31l-8.13-6.79c-.25-.21-.51-.39-.78-.55l1.58-1.58c2.35-2.2,6.02-2.14,8.3.14,2.28,2.28,2.33,5.95.13,8.3Z"/><path class="cls-1" d="M2.41,60.34c15.43,0,30.86,0,46.29,0,3.22,0,3.22-5,0-5-15.43,0-30.86,0-46.29,0-3.22,0-3.22,5,0,5h0Z"/></g></svg>