<?xml version="1.0" encoding="UTF-8"?><svg id="Layer_2" xmlns="http://www.w3.org/2000/svg" viewBox="0 0 1000 222.79"><defs><style>.cls-1{fill:#013364;}</style></defs><g id="Layer_1-2"><path class="cls-1" d="M62.71,102.11c37.56,0,62.71,25.64,62.71,59.6s-25.15,61.07-62.71,61.07S0,196.5,0,161.72s25.15-59.6,62.71-59.6ZM62.71,191.6c15.35,0,26.45-12.08,26.45-29.88s-11.1-28.41-26.45-28.41-26.45,11.43-26.45,28.41,11.1,29.88,26.45,29.88Z"/><path class="cls-1" d="M139.95,104.07h76.26v28.09h-40.99v19.76h33.64v27.6h-33.64v41.31h-35.27v-116.76Z"/><path class="cls-1" d="M230.41,104.07h76.26v28.09h-40.99v19.76h33.64v27.6h-33.64v41.31h-35.27v-116.76Z"/><path class="cls-1" d="M320.88,104.07h77.89v28.09h-42.62v16h34.13v27.76h-34.13v16.82h44.91v28.09h-80.18v-116.76Z"/><path class="cls-1" d="M416.09,104.07h50.78c25.64,0,43.11,13.88,43.11,38.38,0,13.39-6.86,25.96-17.8,32.66v.33c.33.65,2.61,3.59,5.06,8l20.41,37.39h-38.37l-18.13-36.58h-9.8v36.58h-35.27v-116.76ZM461.81,156.98c7.84,0,12.41-4.74,12.41-12.41s-3.1-12.08-13.72-12.08h-9.15v24.49h10.45Z"/><path class="cls-1" d="M700.35,103.08h35.27v116.76h-35.27v-116.76Z"/><path class="cls-1" d="M755.87,103.08h33.64l28.74,47.85c4.9,8,8.33,17.8,8.33,17.8h.65s-1.31-10.45-1.31-17.8v-47.85h34.13v116.76h-34.29l-28.9-50.13c-4.25-7.02-8.33-17.64-8.33-17.64h-.65s1.31,10.29,1.31,17.64v50.13h-33.31v-116.76Z"/><path class="cls-1" d="M937.29,101.12c37.56,0,62.71,25.64,62.71,59.6s-25.15,61.07-62.71,61.07-62.71-26.29-62.71-61.07,25.15-59.6,62.71-59.6ZM937.29,190.61c15.35,0,26.45-12.08,26.45-29.88s-11.11-28.41-26.45-28.41-26.45,11.43-26.45,28.41,11.11,29.88,26.45,29.88Z"/><path class="cls-1" d="M656.49,0h-83.62c-.2,0-.41.03-.6.06-.07,0-.14,0-.21.02-.42.07-.84.2-1.23.37-.09.04-.16.08-.25.12-.4.2-.79.43-1.13.73l-41.86,36.54c-.25.22-.48.47-.68.73-.06.07-.11.15-.15.22-.15.22-.29.45-.4.69-.03.07-.07.12-.1.19-.13.3-.24.61-.31.92-.02.07-.02.15-.04.22-.05.27-.08.53-.09.8,0,.05-.02.11-.02.15v141.03c0,2.89,2.33,5.22,5.22,5.22s5.22-2.33,5.22-5.22V46.98s36.63,0,36.63,0c2.89,0,5.22-2.33,5.22-5.22V10.44h73.18v167.02h-120.26c-2.89,0-5.22,2.33-5.22,5.22s2.33,5.22,5.22,5.22h125.48c2.89,0,5.22-2.33,5.22-5.22V5.22C661.71,2.33,659.38,0,656.49,0h0ZM544.93,36.54l12.23-10.67,10.5-9.17v19.83h-22.72Z"/><path class="cls-1" d="M583.69,109.19c1.05,1.01,1.22,3.87,3.4,5.58,3.39,2.65,9.15,1.42,12.06-1.41.99-.97,1.03-2.32,1.93-3.29,5.28-5.68,13.31,2.15,5.08,10.11-5.1,4.93-13.47,7.3-20.3,5.16-5.1-1.6-12.03-8.58-10.31-14.19,1.01-3.29,6.11-3.9,8.13-1.95Z"/><path class="cls-1" d="M559.23,81.85c12.87-2.92,12.51,19.08-1.76,14.38-7.87-2.59-3.95-13.09,1.76-14.38Z"/><path class="cls-1" d="M621.02,83.3c13.47-3.09,11.1,19.61-1.76,14.39-6.15-2.5-4.29-13,1.76-14.39Z"/><path class="cls-1" d="M528.53,104.84c-10.48-.96-20.46-4.87-28.95-11.06-1.19-.86-3-.19-3.69.97-.81,1.36-.2,2.84.97,3.69,9.28,6.76,20.25,10.75,31.68,11.79,3.46.32,3.44-5.08,0-5.4Z"/><path class="cls-1" d="M695.95,94.77c-14.91-1.2-29.89,4-41,13.96-2.59,2.32,1.23,6.13,3.82,3.82,10.1-9.05,23.7-13.47,37.18-12.38,3.46.28,3.44-5.12,0-5.4Z"/><path class="cls-1" d="M573.97,183.63c-.14-1.45-1.14-2.7-2.7-2.7-1.35,0-2.84,1.24-2.7,2.7.62,6.35.62,12.74-.06,19.09-.33,3.04-.8,6.1-1.51,9.08-.51,2.14-1.18,4.59-3.12,5.87-2.88,1.91-.18,6.59,2.72,4.66,5.45-3.62,6.17-10.95,6.97-16.9.97-7.24,1.1-14.53.39-21.8Z"/><path class="cls-1" d="M620,217.44c-4.27-3.28-5.45-9.33-5.6-14.41-.21-7.06.99-14.02-.35-21.04-.65-3.41-5.85-1.97-5.2,1.43,1.41,7.37-.43,14.87.33,22.28.66,6.4,2.87,12.37,8.1,16.39,1.16.89,3.01.17,3.69-.97.83-1.38.18-2.81-.97-3.69Z"/></g></svg>