<?xml version="1.0" encoding="UTF-8"?><svg id="Layer_2" xmlns="http://www.w3.org/2000/svg" viewBox="0 0 411.03 93.52"><defs><style>.cls-1{fill:#013364;}</style></defs><g id="Layer_1-2"><path class="cls-1" d="M32.98,93.52c-6.61,0-12.4-1.44-17.35-4.32s-8.8-6.9-11.53-12.05c-2.73-5.15-4.09-11.03-4.09-17.64s1.36-12.61,4.09-17.76c2.73-5.15,6.57-9.19,11.53-12.11,4.96-2.92,10.74-4.38,17.35-4.38s12.49,1.46,17.41,4.38c4.92,2.92,8.74,6.96,11.47,12.11,2.73,5.15,4.09,11.07,4.09,17.76s-1.37,12.49-4.09,17.64c-2.73,5.15-6.55,9.17-11.47,12.05-4.92,2.88-10.72,4.32-17.41,4.32ZM32.98,78.76c3.77,0,6.82-.87,9.17-2.59,2.34-1.73,4.09-4.05,5.25-6.98,1.15-2.92,1.73-6.15,1.73-9.69s-.58-6.9-1.73-9.86c-1.15-2.96-2.9-5.3-5.25-7.03-2.35-1.73-5.4-2.59-9.17-2.59s-6.73.87-9.11,2.59c-2.38,1.73-4.15,4.08-5.3,7.03-1.15,2.96-1.73,6.25-1.73,9.86s.58,6.77,1.73,9.69c1.15,2.92,2.92,5.25,5.3,6.98,2.38,1.73,5.42,2.59,9.11,2.59Z"/><path class="cls-1" d="M70.11,27.1h36.32v14.07h-36.32v-14.07ZM77.49,5.19h28.94v14.07h-12.46v72.42h-16.49V5.19Z"/><path class="cls-1" d="M112.2,27.1h36.32v14.07h-36.32v-14.07ZM119.58,5.19h28.94v14.07h-12.45v72.42h-16.49V5.19Z"/><path class="cls-1" d="M157.52,4.04l17.64-4.04,4.04,17.64-17.64,4.04-4.04-17.64ZM165.11,26.48l16.42,1.51-5.9,64.31-16.42-1.51,5.9-64.31Z"/><path class="cls-1" d="M259.65,48.23l16.72,5.64-5.64,16.72-16.72-5.64,5.64-16.72Z"/><path class="cls-1" d="M344.26,64.58c0,5.54-1.27,10.49-3.8,14.88-2.54,4.38-6.07,7.82-10.61,10.32-4.54,2.5-9.84,3.75-15.91,3.75-6.61,0-12.4-1.44-17.35-4.32s-8.8-6.9-11.53-12.05c-2.73-5.15-4.09-11.03-4.09-17.64s1.36-12.61,4.09-17.76c2.73-5.15,6.57-9.19,11.53-12.11,4.96-2.92,10.74-4.38,17.35-4.38,5.84,0,11.03,1.29,15.57,3.86,4.54,2.58,8.09,5.92,10.67,10.03,2.57,4.11,3.86,8.55,3.86,13.32h-17.41c0-2.08-.42-4.04-1.27-5.88s-2.19-3.36-4.04-4.55c-1.85-1.19-4.31-1.79-7.38-1.79-3.92,0-7.07.85-9.46,2.54-2.38,1.69-4.09,4-5.13,6.92-1.04,2.92-1.56,6.19-1.56,9.8s.52,6.75,1.56,9.63,2.75,5.17,5.13,6.86c2.38,1.69,5.54,2.54,9.46,2.54,3.07,0,5.57-.65,7.5-1.96,1.92-1.31,3.34-3.02,4.27-5.13.92-2.11,1.38-4.4,1.38-6.86h17.18Z"/><path class="cls-1" d="M352.68,5.19h16.49v86.49h-16.49V5.19ZM369.17,60.08l-1.85-13.26c0-2,.29-4.23.87-6.69.58-2.46,1.65-4.82,3.23-7.09,1.58-2.27,3.82-4.13,6.75-5.59,2.92-1.46,6.73-2.19,11.42-2.19,4.15,0,7.84.85,11.07,2.54,3.23,1.69,5.77,4.48,7.61,8.36,1.84,3.88,2.77,9.13,2.77,15.74v39.78h-16.49v-38.28c0-2.54-.19-4.86-.58-6.98-.39-2.11-1.25-3.79-2.6-5.02-1.35-1.23-3.48-1.84-6.4-1.84-2.31,0-4.69.65-7.15,1.96-2.46,1.31-4.52,3.44-6.17,6.4-1.65,2.96-2.48,7.02-2.48,12.17Z"/><path class="cls-1" d="M260.01,49.26c-.28-1.04-1.38-1.63-2.41-1.37-4.38,1.13-8.49,3.13-12.12,5.8v-10.1c0-.59-.06-1.18-.16-1.76h0c-.32-1.74-1.09-3.37-2.25-4.71l-10.71-12.38c-1.88-2.17-4.61-3.42-7.49-3.42h-30.68c-4.12,0-7.46,3.33-7.47,7.45v24.18c-3.17-2.24-6.71-3.94-10.48-4.96-.99-.27-2.17.34-2.41,1.37-.24,1.03.31,2.12,1.37,2.41,4.24,1.16,8.23,3.29,11.52,6.15v14.69c0,4.12,3.34,7.47,7.47,7.47h9.39c-.15,1.16-.41,2.31-.83,3.56-.63,1.87-1.73,3.96-2.95,5.49-.66.83-.81,1.96,0,2.77.68.68,2.11.83,2.77,0,2.72-3.43,4.45-7.51,4.95-11.82h7.16v-.05h22.53v.05h.79c1.98,0,3.88-.79,5.28-2.19s2.19-3.3,2.19-5.28v-13.91c3.75-3.38,8.27-5.78,13.16-7.05,1.02-.26,1.64-1.4,1.37-2.41ZM225.84,27.79c.67.19,13.12,14.51,13.25,15.12h-8.73c-2.54-.06-4.55-2.16-4.52-4.7v-10.42ZM239.21,72.63c0,.66-.53,1.19-1.19,1.19h-43.81c-.66,0-1.19-.53-1.19-1.19V28.78c0-.66.53-1.19,1.19-1.19h25.38v10.6c-.03,6.01,4.8,10.91,10.81,10.98h8.81v23.45Z"/><path class="cls-1" d="M211.86,61.7c.4.38.46,1.47,1.29,2.12,1.29,1.01,3.48.54,4.59-.54.38-.37.39-.88.74-1.25,2.01-2.16,5.06.82,1.93,3.84-1.94,1.87-5.12,2.78-7.72,1.96-1.94-.61-4.58-3.26-3.92-5.4.38-1.25,2.32-1.48,3.09-.74Z"/><path class="cls-1" d="M202.56,51.31c4.9-1.11,4.76,7.26-.67,5.47-2.99-.98-1.5-4.98.67-5.47Z"/><path class="cls-1" d="M226.06,51.85c5.12-1.18,4.22,7.46-.67,5.47-2.34-.95-1.63-4.94.67-5.47Z"/><path class="cls-1" d="M226.07,79.58c.15,1.16.41,2.31.83,3.56.63,1.87,1.74,3.96,2.95,5.49.66.83.81,1.96,0,2.77-.68.68-2.11.83-2.77,0-2.72-3.43-4.45-7.51-4.95-11.82h3.94Z"/></g></svg>