<?xml version="1.0" encoding="UTF-8"?><svg id="Layer_2" xmlns="http://www.w3.org/2000/svg" viewBox="0 0 513.36 104.17"><defs><style>.cls-1{fill:#013364;}</style></defs><g id="Layer_1-2"><path class="cls-1" d="M44.28,18.95c26.52,0,44.28,18.1,44.28,42.09s-17.76,43.13-44.28,43.13S0,85.6,0,61.04,17.76,18.95,44.28,18.95ZM44.28,82.14c10.84,0,18.68-8.53,18.68-21.1s-7.84-20.06-18.68-20.06-18.68,8.07-18.68,20.06,7.84,21.1,18.68,21.1Z"/><path class="cls-1" d="M95.82,20.34h53.85v19.83h-28.94v13.95h23.75v19.49h-23.75v29.17h-24.91V20.34Z"/><path class="cls-1" d="M156.71,20.34h53.85v19.83h-28.94v13.95h23.75v19.49h-23.75v29.17h-24.91V20.34Z"/><path class="cls-1" d="M221.2,19.44l23.5,2.04-7.13,82.14-23.5-2.04,7.13-82.14Z"/><path class="cls-1" d="M424.63,45.63c16.4,0,23.68,8.36,23.68,8.36l-9.45,14.99c-1.3-1.19-5.54-5.1-12.27-5.1-7.93,0-11.4,5.21-11.4,10.75s3.8,11.3,11.73,11.3c6.63,0,12.49-4.67,13.9-5.97l8.15,15.53s-7.39,8.69-24.11,8.69c-21.72,0-32.58-14.23-32.58-29.32s10.64-29.22,32.36-29.22Z"/><path class="cls-1" d="M455.04,25.21h22.26v24.22c0,2.39-.22,4.45-.22,4.45h.22c2.61-4.45,8.58-8.25,16.51-8.25,10.97,0,19.55,5.1,19.55,20.42v36.82h-22.7v-32.04c0-4.13-1.41-5.76-4.45-5.76-3.91,0-6.41,2.28-7.6,5.65-.65,1.74-.87,3.69-.87,5.65v26.5h-22.7V25.21Z"/><path class="cls-1" d="M364.16,40.36c-.41-1.5-2-2.36-3.48-1.98-6.34,1.64-12.27,4.52-17.52,8.39v-14.59c0-.85-.08-1.7-.23-2.54h0c-.46-2.52-1.58-4.87-3.26-6.8l-15.47-17.89C321.49,1.8,317.54,0,313.38,0h-44.34c-5.96,0-10.78,4.82-10.8,10.77v34.95c-4.58-3.24-9.7-5.69-15.14-7.17-1.43-.39-3.14.48-3.48,1.98-.34,1.49.45,3.06,1.98,3.48,6.13,1.67,11.9,4.75,16.65,8.89v21.24c0,5.96,4.83,10.79,10.8,10.79h13.57c-.22,1.68-.6,3.34-1.2,5.14-.9,2.71-2.51,5.73-4.26,7.94-.95,1.2-1.17,2.83,0,4,.98.98,3.05,1.2,4,0,3.93-4.96,6.44-10.85,7.15-17.08h10.35v-.08h32.56v.08h1.14c2.86,0,5.61-1.14,7.63-3.16,2.03-2.02,3.16-4.77,3.16-7.63v-20.1c5.42-4.88,11.95-8.36,19.02-10.19,1.48-.38,2.38-2.02,1.98-3.48ZM314.78,9.33c.97.27,18.96,20.97,19.15,21.85h-12.61c-3.67-.09-6.58-3.12-6.53-6.79v-15.06ZM334.09,74.13c0,.95-.77,1.72-1.72,1.72h-63.32c-.95,0-1.72-.77-1.72-1.72V10.77c0-.95.77-1.72,1.72-1.72h36.69v15.32c-.04,8.68,6.93,15.77,15.62,15.87h12.74v33.89Z"/><path class="cls-1" d="M294.57,58.34c.58.56.67,2.13,1.87,3.07,1.86,1.46,5.03.78,6.63-.78.55-.53.57-1.28,1.06-1.81,2.9-3.12,7.32,1.18,2.79,5.56-2.8,2.71-7.41,4.01-11.16,2.84-2.8-.88-6.61-4.72-5.67-7.8.55-1.81,3.36-2.14,4.47-1.07Z"/><path class="cls-1" d="M281.12,43.32c7.08-1.6,6.88,10.49-.97,7.91-4.32-1.42-2.17-7.2.97-7.91Z"/><path class="cls-1" d="M315.09,44.11c7.4-1.7,6.1,10.78-.97,7.91-3.38-1.37-2.36-7.15.97-7.91Z"/><path class="cls-1" d="M315.11,84.18c.22,1.68.6,3.34,1.2,5.14.9,2.71,2.51,5.73,4.26,7.94.95,1.2,1.17,2.83,0,4-.99.98-3.05,1.2-4,0-3.93-4.96-6.44-10.85-7.15-17.08h5.69Z"/><circle class="cls-1" cx="369.99" cy="50.74" r="13.93"/></g></svg>